#!OML:ASF I:\Actors\actors\Patient Classification 2\Patient 1\Session 1\actor1.ASF
:FULLY-SPECIFIED
:DEGREES
400
root -0.72057 18.6543 5.42541 1.53996 -1.86931 -2.61802
lowerback 5.68349 0.789416 -1.77743
upperback -6.28628 0.877966 -0.00701451
thorax -9.89808 0.553932 0.865015
lowerneck -12.5193 -2.79943 0.742616
upperneck -16.2946 -3.57176 2.08226
head -3.14239 -1.8444 0.51588
rclavicle 1.70955e-014 -8.34896e-015
rhumerus 35.7458 -11.851 -27.6956
rradius 134.536
rwrist -27.7632
rhand -13.2671 -38.2604
rfingers 7.12502
rthumb 12.8357 -67.8457
lclavicle 1.70955e-014 -8.34896e-015
lhumerus -56.0954 -2.83431 81.1011
lradius 56.3438
lwrist 2.71286
lhand -4.42129 -28.7459
lfingers 7.12502
lthumb 21.3494 0.0980506
rfemur 9.01407 1.36655 16.9179
rtibia -1.90833e-014
rfoot -16.6245 -10.3065
rtoes -7.13097
lfemur -2.0647 -5.68553 -12.229
ltibia 22.0386
lfoot -23.5023 10.6453
ltoes -56.1384
401
root -0.678539 18.6642 5.38958 1.89171 -2.38875 -2.55415
lowerback 5.65578 0.945932 -1.34128
upperback -6.30461 1.12695 -0.09024
thorax -9.89675 0.639776 0.496654
lowerneck -12.2264 -2.83088 0.738558
upperneck -15.6889 -3.63429 1.95123
head -2.97882 -1.87098 0.468698
rclavicle -8.34896e-015 -1.19271e-015
rhumerus 35.5847 -11.1729 -27.4934
rradius 134.351
rwrist -27.7645
rhand -12.8969 -38.3862
rfingers 7.12502
rthumb 13.1926 -67.9488
lclavicle -8.34896e-015 -1.19271e-015
lhumerus -56.0254 -2.9441 81.3239
lradius 56.5334
lwrist 2.80953
lhand -4.5932 -28.7252
lfingers 7.12502
lthumb 21.1842 0.137319
rfemur 8.29256 1.87325 16.6691
rtibia 1.59028e-014
rfoot -16.2752 -10.6376
rtoes -8.06746
lfemur -2.52502 -5.97101 -12.5659
ltibia 22.0943
lfoot -23.6774 11.4441
ltoes -55.9929
402
root -0.6748 18.6659 5.37268 1.92265 -2.4571 -2.51585
lowerback 5.59083 0.959472 -1.4265
upperback -6.16078 1.14206 -0.0476579
thorax -9.70201 0.653625 0.590371
lowerneck -11.8612 -2.84646 0.625097
upperneck -15.0036 -3.65774 1.90101
head -2.79819 -1.8743 0.466625
rclavicle -1.35174e-014 1.03368e-014
rhumerus 35.1264 -10.5025 -27.2384
rradius 134.445
rwrist -28.0557
rhand -12.7835 -38.8634
rfingers 7.12502
rthumb 13.3019 -68.4189
lclavicle -1.35174e-014 1.03368e-014
lhumerus -56.0101 -3.11427 81.5484
lradius 56.7732
lwrist 2.90951
lhand -4.76194 -28.6246
lfingers 7.12502
lthumb 21.0221 0.256009
rfemur 8.18111 1.93852 16.6192
rtibia 1.59028e-015
rfoot -16.1883 -10.7165
rtoes -8.38093
lfemur -2.63467 -5.98011 -12.6249
ltibia 22.1549
lfoot -23.7018 11.5197
ltoes -55.9969
403
root -0.672097 18.6669 5.35294 1.93449 -2.53316 -2.53596
lowerback 5.60364 0.973073 -1.41022
upperback -6.01737 1.1648 -0.0230647
thorax -9.55194 0.663199 0.605663
lowerneck -11.4046 -2.85799 0.374901
upperneck -14.3533 -3.64063 2.10113
head -2.63999 -1.85651 0.569949
rclavicle -8.94531e-016 3.97569e-016
rhumerus 34.467 -10.0878 -26.9606
rradius 134.763
rwrist -28.8764
rhand -12.817 -39.3986
rfingers 7.12502
rthumb 13.2696 -68.9562
lclavicle -8.94531e-016 3.97569e-016
lhumerus -55.9864 -3.31213 81.717
lradius 56.9522
lwrist 3.00798
lhand -4.73342 -28.5309
lfingers 7.12502
lthumb 21.0495 0.346706
rfemur 8.07648 2.01443 16.6311
rtibia -1.59028e-014
rfoot -16.1117 -10.7628
rtoes -8.38272
lfemur -2.74399 -5.86243 -12.5943
ltibia 22.2295
lfoot -23.6618 11.4908
ltoes -55.9742
404
root -0.670093 18.6682 5.33102 1.98966 -2.61761 -2.5216
lowerback 5.67941 1.00215 -1.39444
upperback -5.91782 1.20319 -0.0437397
thorax -9.48734 0.6791 0.569383
lowerneck -11.1953 -2.84751 0.504495
upperneck -13.4533 -3.6629 1.96123
head -2.37288 -1.86771 0.493266
rclavicle -1.32192e-014 -1.98785e-015
rhumerus 33.8463 -9.32985 -26.7337
rradius 134.938
rwrist -29.3578
rhand -12.8883 -39.8292
rfingers 7.12502
rthumb 13.2008 -69.3912
lclavicle -1.32192e-014 -1.98785e-015
lhumerus -56.0071 -3.55476 81.8443
lradius 57.1228
lwrist 3.1342
lhand -4.65293 -28.5364
lfingers 7.12502
lthumb 21.1269 0.332526
rfemur 7.91886 2.0952 16.6009
rtibia 1.59028e-015
rfoot -16.0616 -10.787
rtoes -8.00487
lfemur -2.93064 -5.57622 -12.5726
ltibia 22.3283
lfoot -23.5217 11.3283
ltoes -55.9603
405
root -0.705166 18.6645 5.32893 1.77562 -2.23583 -2.44883
lowerback 5.68485 0.905551 -1.96135
upperback -5.66263 1.02394 0.0266739
thorax -9.22034 0.629941 0.989348
lowerneck -11.0575 -2.84404 0.753373
upperneck -12.4508 -3.71454 1.69615
head -2.06957 -1.89535 0.355951
rclavicle 9.93923e-015 1.98785e-015
rhumerus 33.3728 -8.21809 -26.6042
rradius 134.893
rwrist -29.3456
rhand -12.7893 -40.1665
rfingers 7.12502
rthumb 13.2963 -69.7223
lclavicle 9.93923e-015 1.98785e-015
lhumerus -56.0233 -3.81135 81.9457
lradius 57.3348
lwrist 3.24052
lhand -4.65335 -28.5255
lfingers 7.12502
lthumb 21.1264 0.343464
rfemur 8.32245 1.7164 16.682
rtibia -1.59028e-015
rfoot -16.2948 -10.6273
rtoes -7.20867
lfemur -2.7808 -5.13134 -12.3896
ltibia 22.3523
lfoot -23.1862 10.5917
ltoes -56.164
406
root -0.663033 18.6723 5.28358 2.06009 -2.80881 -2.45799
lowerback 5.75214 1.09559 -1.41903
upperback -5.58242 1.32501 -0.0715147
thorax -9.16471 0.735988 0.539756
lowerneck -10.377 -2.90784 0.202406
upperneck -12.0767 -3.70776 2.33886
head -2.0331 -1.87963 0.6542
rclavicle 1.66482e-014 1.03368e-014
rhumerus 33.0256 -7.28704 -26.4176
rradius 134.795
rwrist -29.3284
rhand -12.5672 -40.2998
rfingers 7.12502
rthumb 13.5104 -69.8415
lclavicle 1.66482e-014 1.03368e-014
lhumerus -55.854 -3.92419 82.0664
lradius 57.4266
lwrist 3.25978
lhand -4.68333 -28.6122
lfingers 7.12502
lthumb 21.0976 0.260027
rfemur 7.63337 2.27999 16.5021
rtibia -1.90833e-014
rfoot -15.971 -10.9069
rtoes -7.56384
lfemur -3.18026 -5.41485 -12.6537
ltibia 22.3886
lfoot -23.3532 11.4775
ltoes -56.058
